# xmcd CD database file generated by MAGIX-FreeDB-player v3.0beta1
#
# Track frame offsets:
#	150
#	22984
#	40507
#	58163
#	73037
#	90315
#	104464
#	122367
#	144149
#	160655
#
# Disc length: 2367
#
# Revision: 0
# Processed by: cddbd v1.5.2PL0 Copyright (c) Steve Scherf et al.
# Submitted via: MAGIX-FreeDB-player v3.0beta1
#
DISCID=71093d0a
DTITLE=The Rakes - Ten New Messages
DYEAR=2007
DGENRE=Alternative
TTITLE0=Time To Stop Talking
TTITLE1=We Danced Together
TTITLE2=When Tom Cruise Cries
TTITLE3=The World Was A Mess But His Hair Was Perfect
TTITLE4=Trouble
TTITLE5=Down With Moonlight
TTITLE6=Little Superstitions
TTITLE7=Suspicious Eyes
TTITLE8=On a Mission
TTITLE9=Leave The City And Come Home
EXTD=
EXTT0=
EXTT1=
EXTT2=
EXTT3=
EXTT4=
EXTT5=
EXTT6=
EXTT7=
EXTT8=
EXTT9=
PLAYORDER=
